<svg xmlns="http://www.w3.org/2000/svg" width="28.072" height="28.072" viewBox="0 0 28.072 28.072">
  <path id="_025-content-writing" data-name="025-content-writing" d="M28.072,26.976a1.1,1.1,0,0,1-1.1,1.1H14.036a1.1,1.1,0,1,1,0-2.193h12.94A1.1,1.1,0,0,1,28.072,26.976Zm-1.1-5.41H18.349a1.1,1.1,0,0,0,0,2.193h8.626a1.1,1.1,0,1,0,0-2.193Zm0-4.313H22.662a1.1,1.1,0,1,0,0,2.193h4.313a1.1,1.1,0,1,0,0-2.193Zm.775-8.911L8.342,27.751a1.1,1.1,0,0,1-.775.321H1.1a1.1,1.1,0,0,1-1.1-1.1v-6.47a1.1,1.1,0,0,1,.321-.775L19.731.322a1.1,1.1,0,0,1,1.551,0l6.47,6.47a1.1,1.1,0,0,1,0,1.551Zm-2.326-.775L20.506,2.648,2.193,20.961v4.919H7.112Zm0,0" transform="translate(0 0)" fill="#596682"/>
</svg>
