<svg xmlns="http://www.w3.org/2000/svg" width="31.356" height="27.116" viewBox="0 0 31.356 27.116">
  <g id="_026-document" data-name="026-document" transform="translate(0 -17.081)">
    <path id="Path_918" data-name="Path 918" d="M29.184,17.081H2.172A2.174,2.174,0,0,0,0,19.253V37.579a2.174,2.174,0,0,0,2.172,2.172H17.923l-.476,2.9a1.254,1.254,0,0,0,1.891,1.362l3.4-1.789a.715.715,0,0,1,.451,0l3.4,1.789a1.515,1.515,0,0,0,.7.183,1.192,1.192,0,0,0,.7-.223,1.318,1.318,0,0,0,.483-1.323L28,39.751h1.183a2.174,2.174,0,0,0,2.172-2.172V19.253A2.175,2.175,0,0,0,29.184,17.081ZM22.962,36.028a3.785,3.785,0,1,1,3.785-3.785A3.79,3.79,0,0,1,22.962,36.028Zm1.093,4.549a2.512,2.512,0,0,0-2.185,0l-2.4,1.265.764-4.659a5.633,5.633,0,0,0,5.463,0l.3,1.816s0,.006,0,.009l.465,2.834Zm5.44-3a.314.314,0,0,1-.31.31H27.7l-.34-2.074c0-.008,0-.016-.005-.024a5.647,5.647,0,1,0-8.777,0c0,.008,0,.016-.005.024l-.34,2.076-.031,0H2.172a.314.314,0,0,1-.31-.31V19.253a.314.314,0,0,1,.31-.31H29.184a.314.314,0,0,1,.31.31Z" fill="#596682"/>
    <path id="Path_919" data-name="Path 919" d="M53.149,60.243H32.05a.931.931,0,1,0,0,1.862h21.1a.931.931,0,1,0,0-1.862Z" transform="translate(-27.257 -37.805)" fill="#596682"/>
    <path id="Path_920" data-name="Path 920" d="M40.986,100.911H32.05a.931.931,0,1,0,0,1.862h8.936a.931.931,0,1,0,0-1.862Z" transform="translate(-27.257 -73.426)" fill="#596682"/>
  </g>
</svg>
