<?xml version="1.0" encoding="utf-8"?>
<!-- Generator: Adobe Illustrator 23.0.3, SVG Export Plug-In . SVG Version: 6.00 Build 0)  -->
<svg version="1.1" id="Layer_1" xmlns="http://www.w3.org/2000/svg" xmlns:xlink="http://www.w3.org/1999/xlink" x="0px" y="0px"
	 viewBox="0 0 96 19" style="enable-background:new 0 0 96 19;" xml:space="preserve">
<style type="text/css">
	.st0{fill:#FFFFFF;}
</style>
<path class="st0" d="M19.9,9.4l-4.6-8.1c-0.1-0.1-0.2-0.2-0.3-0.2H5.7c-0.1,0-0.3,0.1-0.3,0.2L0.7,9.2c-0.2,0.3-0.2,0.6,0,0.9
	l3.2,5.6l1.2-2.2h7.1c0.2,0,0.3-0.1,0.4-0.2l1.8-3.4c0.1-0.1,0.1-0.3,0-0.4l-1.8-3.4c-0.1-0.1-0.2-0.2-0.4-0.2H6
	c-0.3,0-0.5-0.3-0.3-0.6l0.9-1.6c0.1-0.1,0.2-0.2,0.3-0.2h6.6c0.1,0,0.3,0.1,0.3,0.2l3.3,5.8c0.1,0.1,0.1,0.3,0,0.4l-3.3,5.6
	c-0.1,0.1-0.2,0.2-0.3,0.2H6.6l-1.2,2.5h9.5c0.1,0,0.3-0.1,0.4-0.2l4.6-8.2C20,9.7,20,9.5,19.9,9.4z M10.8,8.2
	c0.2,0,0.3,0.1,0.4,0.2l0.5,1.1c0.1,0.1,0.1,0.3,0,0.4l-0.7,1c-0.1,0.1-0.2,0.2-0.3,0.2H4.2c-0.2,0-0.3-0.1-0.4-0.2L3.3,9.6
	c-0.1-0.1,0-0.3,0-0.4L4,8.4c0.1-0.1,0.2-0.2,0.3-0.2H10.8z"/>
<g>
	<path class="st0" d="M26.4,5.7c0.9,0,1.6,0.2,2.1,0.6c0.5,0.4,0.7,0.9,0.7,1.7c0,0.4-0.1,0.7-0.4,1c-0.2,0.3-0.6,0.5-0.9,0.7
		c0.5,0.1,0.9,0.4,1.2,0.7c0.3,0.4,0.4,0.8,0.4,1.4c0,0.8-0.3,1.4-0.8,1.8c-0.5,0.4-1.2,0.6-2,0.6h-4v-0.7l0.9-0.2V6.6l-0.9-0.2V5.7
		h0.9H26.4z M24.7,9.2h1.9c0.4,0,0.7-0.1,1-0.4c0.3-0.2,0.4-0.6,0.4-1c0-0.5-0.1-0.8-0.4-1c-0.3-0.2-0.7-0.3-1.2-0.3h-1.6V9.2z
		 M24.7,10.1v3.1h2c0.5,0,0.9-0.1,1.2-0.4c0.3-0.3,0.4-0.6,0.4-1.1c0-0.5-0.1-0.9-0.4-1.2c-0.2-0.3-0.6-0.4-1.1-0.4H24.7z"/>
	<path class="st0" d="M35,13.2c-0.2,0.3-0.5,0.6-0.8,0.8c-0.3,0.2-0.7,0.3-1.1,0.3c-0.7,0-1.2-0.2-1.6-0.7c-0.4-0.4-0.6-1.1-0.6-2
		V8.7l-0.7-0.2V7.8H31h1.1v3.7c0,0.7,0.1,1.1,0.3,1.4c0.2,0.3,0.5,0.4,0.9,0.4c0.4,0,0.7-0.1,1-0.2c0.3-0.2,0.5-0.4,0.6-0.7V8.7
		l-0.8-0.2V7.8H35h1.1v5.4l0.7,0.2v0.7h-1.7L35,13.2z"/>
	<path class="st0" d="M42.5,9.8h-0.9L41.5,9c-0.1-0.1-0.3-0.2-0.5-0.3c-0.2-0.1-0.4-0.1-0.7-0.1c-0.4,0-0.7,0.1-0.9,0.3
		C39.1,9.1,39,9.3,39,9.5c0,0.2,0.1,0.4,0.3,0.6c0.2,0.1,0.5,0.3,1.1,0.4c0.8,0.2,1.4,0.4,1.8,0.7c0.4,0.3,0.6,0.7,0.6,1.2
		c0,0.6-0.2,1-0.7,1.3c-0.4,0.3-1,0.5-1.8,0.5c-0.5,0-0.9-0.1-1.3-0.2c-0.4-0.1-0.7-0.3-1-0.5l0-1.4h0.9L39,13
		c0.1,0.1,0.3,0.2,0.5,0.3c0.2,0.1,0.5,0.1,0.7,0.1c0.4,0,0.7-0.1,1-0.2c0.2-0.2,0.3-0.4,0.3-0.6c0-0.3-0.1-0.5-0.3-0.6
		c-0.2-0.2-0.6-0.3-1.1-0.4c-0.8-0.2-1.3-0.4-1.7-0.7c-0.4-0.3-0.6-0.7-0.6-1.2c0-0.5,0.2-0.9,0.7-1.3c0.4-0.4,1-0.5,1.7-0.5
		c0.5,0,0.9,0.1,1.3,0.2s0.7,0.3,0.9,0.5L42.5,9.8z"/>
	<path class="st0" d="M43.8,13.4l0.9-0.2V8.7l-0.9-0.2V7.8h2.1v5.4l0.9,0.2v0.7h-3V13.4z M45.9,6.2h-1.1V5.1h1.1V6.2z"/>
	<path class="st0" d="M47.5,13.4l0.9-0.2V8.7l-0.9-0.2V7.8h2l0.1,0.9C49.7,8.4,50,8.2,50.3,8c0.3-0.2,0.7-0.3,1.1-0.3
		c0.7,0,1.2,0.2,1.6,0.6c0.4,0.4,0.6,1,0.6,1.8v3.1l0.9,0.2v0.7h-3v-0.7l0.9-0.2v-3c0-0.6-0.1-0.9-0.3-1.2c-0.2-0.2-0.6-0.3-1-0.3
		c-0.3,0-0.6,0.1-0.9,0.2c-0.3,0.2-0.5,0.4-0.6,0.6v3.7l0.9,0.2v0.7h-3V13.4z"/>
	<path class="st0" d="M58.1,14.2c-0.9,0-1.6-0.3-2.1-0.9c-0.5-0.6-0.8-1.3-0.8-2.3v-0.3c0-0.9,0.3-1.6,0.8-2.2
		C56.6,8,57.2,7.7,58,7.7c0.8,0,1.5,0.3,1.9,0.8c0.4,0.5,0.7,1.2,0.7,2v0.7h-4.1l0,0c0,0.6,0.2,1.1,0.5,1.5c0.3,0.4,0.7,0.6,1.2,0.6
		c0.4,0,0.7-0.1,1-0.2c0.3-0.1,0.5-0.3,0.8-0.5l0.4,0.7c-0.2,0.2-0.5,0.4-0.9,0.5C59.1,14.1,58.7,14.2,58.1,14.2z M58,8.6
		c-0.4,0-0.7,0.2-1,0.5s-0.4,0.7-0.5,1.2l0,0h2.9v-0.2c0-0.4-0.1-0.8-0.4-1.1C58.8,8.8,58.4,8.6,58,8.6z"/>
	<path class="st0" d="M66.4,9.8h-0.9L65.4,9c-0.1-0.1-0.3-0.2-0.5-0.3c-0.2-0.1-0.4-0.1-0.7-0.1c-0.4,0-0.7,0.1-0.9,0.3
		S63,9.3,63,9.5c0,0.2,0.1,0.4,0.3,0.6c0.2,0.1,0.5,0.3,1.1,0.4c0.8,0.2,1.4,0.4,1.8,0.7s0.6,0.7,0.6,1.2c0,0.6-0.2,1-0.7,1.3
		c-0.5,0.3-1,0.5-1.8,0.5c-0.5,0-0.9-0.1-1.3-0.2c-0.4-0.1-0.7-0.3-1-0.5l0-1.4h0.9L63,13c0.1,0.1,0.3,0.2,0.5,0.3
		c0.2,0.1,0.5,0.1,0.7,0.1c0.4,0,0.7-0.1,1-0.2c0.2-0.2,0.3-0.4,0.3-0.6c0-0.3-0.1-0.5-0.3-0.6c-0.2-0.2-0.6-0.3-1.1-0.4
		c-0.8-0.2-1.3-0.4-1.7-0.7c-0.4-0.3-0.6-0.7-0.6-1.2c0-0.5,0.2-0.9,0.7-1.3c0.4-0.4,1-0.5,1.7-0.5c0.5,0,0.9,0.1,1.3,0.2
		c0.4,0.1,0.7,0.3,0.9,0.5L66.4,9.8z"/>
	<path class="st0" d="M72.5,9.8h-0.9L71.4,9c-0.1-0.1-0.3-0.2-0.5-0.3c-0.2-0.1-0.4-0.1-0.7-0.1c-0.4,0-0.7,0.1-0.9,0.3
		C69.1,9.1,69,9.3,69,9.5c0,0.2,0.1,0.4,0.3,0.6c0.2,0.1,0.5,0.3,1.1,0.4c0.8,0.2,1.4,0.4,1.8,0.7c0.4,0.3,0.6,0.7,0.6,1.2
		c0,0.6-0.2,1-0.7,1.3c-0.5,0.3-1,0.5-1.8,0.5c-0.5,0-0.9-0.1-1.3-0.2c-0.4-0.1-0.7-0.3-1-0.5l0-1.4h0.9L69,13
		c0.1,0.1,0.3,0.2,0.5,0.3c0.2,0.1,0.5,0.1,0.7,0.1c0.4,0,0.7-0.1,1-0.2c0.2-0.2,0.3-0.4,0.3-0.6c0-0.3-0.1-0.5-0.3-0.6
		c-0.2-0.2-0.6-0.3-1.1-0.4c-0.8-0.2-1.3-0.4-1.7-0.7c-0.4-0.3-0.6-0.7-0.6-1.2c0-0.5,0.2-0.9,0.7-1.3c0.4-0.4,1-0.5,1.7-0.5
		c0.5,0,0.9,0.1,1.3,0.2c0.4,0.1,0.7,0.3,0.9,0.5L72.5,9.8z"/>
	<path class="st0" d="M80.4,5.7c0.9,0,1.6,0.2,2.1,0.7c0.5,0.5,0.7,1.1,0.7,1.8c0,0.8-0.2,1.4-0.7,1.8c-0.5,0.5-1.2,0.7-2.1,0.7
		h-1.8v2.5l0.9,0.2v0.7h-3v-0.7l0.9-0.2V6.6l-0.9-0.2V5.7h0.9H80.4z M78.6,9.8h1.8c0.6,0,1-0.2,1.3-0.5c0.3-0.3,0.4-0.7,0.4-1.2
		c0-0.5-0.1-0.9-0.4-1.2c-0.3-0.3-0.7-0.5-1.3-0.5h-1.8V9.8z"/>
	<path class="st0" d="M84.2,8.6V7.8h2l0.1,0.9c0.2-0.3,0.4-0.6,0.7-0.8c0.3-0.2,0.6-0.3,0.9-0.3c0.1,0,0.2,0,0.3,0
		c0.1,0,0.2,0,0.2,0l-0.2,1.1l-0.6,0c-0.3,0-0.6,0.1-0.8,0.2c-0.2,0.1-0.4,0.3-0.5,0.6v3.6l0.9,0.2v0.7h-3v-0.7l0.9-0.2V8.7
		L84.2,8.6z"/>
	<path class="st0" d="M89.1,10.9c0-0.9,0.3-1.7,0.8-2.3c0.5-0.6,1.2-0.9,2-0.9c0.9,0,1.5,0.3,2,0.9c0.5,0.6,0.8,1.4,0.8,2.3V11
		c0,0.9-0.3,1.7-0.8,2.3c-0.5,0.6-1.2,0.9-2,0.9c-0.9,0-1.6-0.3-2.1-0.9c-0.5-0.6-0.8-1.4-0.8-2.3V10.9z M90.2,11
		c0,0.7,0.1,1.2,0.4,1.6c0.3,0.4,0.7,0.6,1.2,0.6c0.5,0,0.9-0.2,1.2-0.6c0.3-0.4,0.4-1,0.4-1.6v-0.1c0-0.7-0.1-1.2-0.4-1.6
		c-0.3-0.4-0.7-0.7-1.2-0.7c-0.5,0-1,0.2-1.2,0.7c-0.3,0.4-0.4,1-0.4,1.6V11z"/>
</g>
</svg>
