<svg id="_024-name" data-name="024-name" xmlns="http://www.w3.org/2000/svg" width="28.688" height="23.907" viewBox="0 0 28.688 23.907">
  <path id="Path_911" data-name="Path 911" d="M25.4,64.184H3.287A3.29,3.29,0,0,1,0,60.9V45.955a3.29,3.29,0,0,1,3.287-3.287h7.172a.9.9,0,1,1,0,1.793H3.287a1.5,1.5,0,0,0-1.494,1.494V60.9a1.5,1.5,0,0,0,1.494,1.494H25.4A1.5,1.5,0,0,0,26.895,60.9V45.955A1.5,1.5,0,0,0,25.4,44.461H18.229a.9.9,0,1,1,0-1.793H25.4a3.29,3.29,0,0,1,3.287,3.287V60.9A3.29,3.29,0,0,1,25.4,64.184Zm0,0" transform="translate(0 -40.277)" fill="#596682"/>
  <path id="Path_912" data-name="Path 912" d="M178.139,6.574H172.76a2.094,2.094,0,0,1-2.092-2.092V2.092A2.094,2.094,0,0,1,172.76,0h5.379a2.094,2.094,0,0,1,2.092,2.092V4.482A2.094,2.094,0,0,1,178.139,6.574ZM172.76,1.793a.3.3,0,0,0-.3.3V4.482a.3.3,0,0,0,.3.3h5.379a.3.3,0,0,0,.3-.3V2.092a.3.3,0,0,0-.3-.3Zm0,0" transform="translate(-161.105)" fill="#596682"/>
  <path id="Path_913" data-name="Path 913" d="M109.656,155.309a2.988,2.988,0,1,1,2.988-2.988A2.992,2.992,0,0,1,109.656,155.309Zm0-4.184a1.2,1.2,0,1,0,1.2,1.2A1.2,1.2,0,0,0,109.656,151.125Zm0,0" transform="translate(-100.691 -140.965)" fill="#596682"/>
  <path id="Path_914" data-name="Path 914" d="M73.861,282.113a.9.9,0,0,1-.9-.9v-.6a1.5,1.5,0,0,0-1.494-1.494H67.287a1.5,1.5,0,0,0-1.494,1.494v.6a.9.9,0,0,1-1.793,0v-.6a3.29,3.29,0,0,1,3.287-3.287h4.184a3.29,3.29,0,0,1,3.287,3.287v.6A.9.9,0,0,1,73.861,282.113Zm0,0" transform="translate(-60.414 -261.793)" fill="#596682"/>
  <path id="Path_915" data-name="Path 915" d="M306.139,161.793h-6.574a.9.9,0,1,1,0-1.793h6.574a.9.9,0,1,1,0,1.793Zm0,0" transform="translate(-281.933 -151.035)" fill="#596682"/>
  <path id="Path_916" data-name="Path 916" d="M306.139,247.125h-6.574a.9.9,0,1,1,0-1.793h6.574a.9.9,0,1,1,0,1.793Zm0,0" transform="translate(-281.933 -231.586)" fill="#596682"/>
  <path id="Path_917" data-name="Path 917" d="M306.139,332.461h-6.574a.9.9,0,1,1,0-1.793h6.574a.9.9,0,1,1,0,1.793Zm0,0" transform="translate(-281.933 -312.14)" fill="#596682"/>
</svg>
