<svg xmlns="http://www.w3.org/2000/svg" width="27.994" height="27.994" viewBox="0 0 27.994 27.994">
  <path id="_028-support" data-name="028-support" d="M8.212,13.723A8.014,8.014,0,0,1,5.9,8.092a8.092,8.092,0,1,1,9.989,7.867,2.187,2.187,0,1,1-.051-2.258A5.905,5.905,0,1,0,8.092,8.092a5.84,5.84,0,0,0,1.684,4.1,1.093,1.093,0,1,1-1.563,1.529ZM25.774,17.77a13.112,13.112,0,0,0-3.344-2.093,1.094,1.094,0,1,0-.888,2,10.936,10.936,0,0,1,2.789,1.738,4.36,4.36,0,0,1,1.477,3.277v2.023a1.1,1.1,0,0,1-1.094,1.094H3.281a1.1,1.1,0,0,1-1.094-1.094V22.691a4.36,4.36,0,0,1,1.477-3.277,12.674,12.674,0,0,1,5.253-2.608,1.094,1.094,0,1,0-.55-2.117A14.857,14.857,0,0,0,2.221,17.77,6.547,6.547,0,0,0,0,22.691v2.023a3.284,3.284,0,0,0,3.281,3.281H24.714a3.284,3.284,0,0,0,3.281-3.281V22.691a6.547,6.547,0,0,0-2.221-4.92Zm0,0" fill="#596682"/>
</svg>
