<svg xmlns="http://www.w3.org/2000/svg" width="16.338" height="14.742" viewBox="0 0 16.338 14.742">
  <g id="photo-camera" transform="translate(0 -25)">
    <g id="Group_1598" data-name="Group 1598" transform="translate(0 25)">
      <g id="Group_1597" data-name="Group 1597" transform="translate(0 0)">
        <path id="Path_926" data-name="Path 926" d="M134.989,157a3.989,3.989,0,1,0,3.989,3.989A3.993,3.993,0,0,0,134.989,157Zm0,6.7a2.712,2.712,0,1,1,2.712-2.712A2.715,2.715,0,0,1,134.989,163.7Z" transform="translate(-126.82 -152.788)" fill="#596682"/>
        <path id="Path_927" data-name="Path 927" d="M14.423,27.3H12.075a.2.2,0,0,1-.176-.106l-.65-1.365-.005-.011A1.467,1.467,0,0,0,9.925,25H6.458a1.467,1.467,0,0,0-1.319.815l-.005.011-.65,1.365a.2.2,0,0,1-.176.106H1.915A1.917,1.917,0,0,0,0,29.212v8.616a1.917,1.917,0,0,0,1.915,1.915H14.423a1.917,1.917,0,0,0,1.915-1.915V29.212A1.917,1.917,0,0,0,14.423,27.3Zm.638,10.53a.639.639,0,0,1-.638.638H1.915a.639.639,0,0,1-.638-.638V29.212a.639.639,0,0,1,.638-.638H4.308a1.467,1.467,0,0,0,1.319-.815l.005-.011.65-1.365a.2.2,0,0,1,.176-.106H9.925a.2.2,0,0,1,.176.106l.65,1.365.005.011a1.467,1.467,0,0,0,1.319.815h2.348a.639.639,0,0,1,.638.638Z" transform="translate(0 -25)" fill="#596682"/>
        <rect id="Rectangle_2371" data-name="Rectangle 2371" width="2" height="2" transform="translate(12.169 4.371)" fill="#596682"/>
      </g>
    </g>
  </g>
</svg>
